<svg version="1.2" baseProfile="tiny" id="Layer_1" xmlns="http://www.w3.org/2000/svg" xmlns:xlink="http://www.w3.org/1999/xlink" x="0" y="0" width="299" height="342.715" viewBox="17 19.142 299 342.715" overflow="inherit" xml:space="preserve"><desc>Created with Sketch.</desc><rect x="20.5" y="21.75" fill="#B4D6E4" width="292.5" height="293.5"/><g id="logo" transform="translate(146.000000, 134.000000)"><path id="Path-1118" fill="#FFF" d="M-97,185.29v28.722l32.966-13.058L-33.5,214.16v-29L-97,185.29L-97,185.29z M-106,185.29 L-106,185.29v-8.981l8.981-0.019l63.5-0.13l9.019-0.02v9.02v29v13.697l-12.572-5.438l-30.535-13.206l6.887,0.106l-32.965,13.058 L-106,227.257v-13.245V185.29z"/><polygon id="Path" fill="#7F99B3" points="-97,185.271 -97,213.993 -64.034,200.936 -33.5,214.143 -33.5,185.143"/><path id="Rectangle-103" fill="#FFF" d="M-129-106.858L-129-106.858l8-8v299l-8-8h299l-8,8v-299l8,8H-129z M-129-114.858h299 v299h-299V-114.858L-129-114.858z"/><path id="PWL" fill="#FFF" d="M-97-44.999c0,1.801,1.5,1.801,2.4,1.801h10.619c0.9,0,2.4,0,2.4-1.801 c0-1.859-1.439-1.859-2.4-1.859h-3.24v-11.04h11.101c8.521,0,14.82-5.16,14.82-10.979c0-5.82-6.3-10.98-14.82-10.98H-94.6 c-0.961,0-2.4,0-2.4,1.86c0,1.8,1.5,1.8,2.4,1.8h3.24v29.34h-3.24C-95.561-46.858-97-46.858-97-44.999L-97-44.999z M-87.221-61.559 v-14.64h10.08c6.66,0,11.701,3.42,11.701,7.32c0,3.899-5.101,7.319-11.701,7.319L-87.221-61.559L-87.221-61.559z M-43.32-78.059 c0,1.86,1.561,1.86,2.461,1.86h2.039l9.66,32.16c0.66,1.32,1.98,1.32,3,1.32c1.68,0,2.58-0.062,3.24-2.221l9.6-31.98l9.66,31.919 c0.54,1.86,1.02,2.281,3.24,2.281c1.32,0,2.641,0,3.24-2.041L12.24-76.2h2.039c0.9,0,2.461,0,2.461-1.8 c0-1.86-1.561-1.86-2.461-1.86h-8.1c-0.959,0-2.459,0-2.459,1.86c0,1.8,1.619,1.8,2.459,1.8H8.7l-9.12,30.42l-9.6-32.04 c-0.601-2.04-1.92-2.04-3.24-2.04c-1.62,0-2.641,0-3.24,2.04l-9.66,32.04l-9.119-30.42h2.52c0.9,0,2.46,0,2.46-1.8 c0-1.86-1.56-1.86-2.46-1.86h-8.1C-41.76-79.858-43.32-79.858-43.32-78.059L-43.32-78.059z M37-44.999c0,1.801,1.5,1.801,2.4,1.801 h28.26c1.979,0,2.398-0.54,2.398-2.46v-5.341c0-1.199,0-2.459-2.039-2.459c-2.101,0-2.101,1.199-2.101,2.459v4.141h-19.14v-29.34 h4.681c0.899,0,2.399,0,2.399-1.8c0-1.86-1.439-1.86-2.399-1.86H39.4c-0.961,0-2.4,0-2.4,1.86c0,1.8,1.5,1.8,2.4,1.8h3.238v29.34 H39.4C38.439-46.858,37-46.858,37-44.999L37-44.999z M-96.279,2.441c0,10.021,8.76,19.021,21.119,19.021 c10.801,0,17.34-4.62,17.34-10.74c0-1.98-1.439-1.98-2.1-1.98c-0.6,0-1.92,0-2.04,1.74c-0.12,1.44-0.3,3.721-4.261,5.641 c-2.279,1.14-5.639,1.68-8.52,1.68c-10.14,0-17.4-7.26-17.4-15.36s7.381-15.3,17.281-15.3c3.18,0,6.239,0.78,8.399,2.04 c3.601,2.101,4.14,4.5,4.56,6.18c0.301,1.38,1.44,1.38,1.98,1.38c2.1,0,2.1-1.26,2.1-2.459v-8.341c0-0.96,0-2.46-1.8-2.46 c-1.14,0-1.44,0.6-1.86,1.5c-0.539,0.9-0.539,1.02-1.08,2.221c-2.459-1.92-6.959-3.721-12.719-3.721 C-87.34-16.519-96.279-7.639-96.279,2.441L-96.279,2.441z M-30.8,2.441c0,10.38,9.239,19.021,21,19.021c11.88,0,21-8.82,21-18.961 c0-10.379-9.24-19.02-21-19.02C-21.68-16.519-30.8-7.698-30.8,2.441L-30.8,2.441z M-26.66,1.782c0-7.98,7.439-14.641,16.86-14.641 c9.42,0,16.86,6.66,16.86,14.641c0,8.699-7.44,16.02-16.86,16.02C-19.279,17.802-26.66,10.422-26.66,1.782L-26.66,1.782z M37.859,19.001c0,1.801,1.5,1.801,2.399,1.801H50.1c0.899,0,2.399,0,2.399-1.801c0-1.859-1.44-1.859-2.399-1.859h-3.24v-29.939 h0.061l18.12,31.56c1.2,2.04,2.521,2.04,3.78,2.04c1.92,0,2.459-0.36,2.459-2.46v-30.54h3.24c0.899,0,2.399,0,2.399-1.801 c0-1.859-1.438-1.859-2.399-1.859h-9.84c-0.961,0-2.4,0-2.4,1.859c0,1.801,1.5,1.801,2.4,1.801h3.239v29.939h-0.06l-18.121-31.56 c-1.199-2.04-2.521-2.04-3.779-2.04h-5.7c-0.96,0-2.399,0-2.399,1.859c0,1.801,1.5,1.801,2.399,1.801h3.24v29.34h-3.24 C39.3,17.142,37.859,17.142,37.859,19.001L37.859,19.001z M102.92,19.001c0,1.801,1.5,1.801,2.4,1.801h12.06 c0.899,0,2.399,0,2.399-1.801c0-1.859-1.439-1.859-2.399-1.859h-4.68V4.302h11.579c0,2.46,0,3.42,2.101,3.42 c2.04,0,2.04-1.32,2.04-2.46v-5.58c0-1.14,0-2.46-2.04-2.46c-2.101,0-2.101,0.96-2.101,3.42H112.7v-12.84h20.88v3.18 c0,1.141,0,2.46,2.04,2.46c2.101,0,2.101-1.26,2.101-2.46v-4.38c0-1.86-0.359-2.46-2.4-2.46h-30c-0.959,0-2.399,0-2.399,1.859 c0,1.801,1.5,1.801,2.399,1.801h3.24v29.34h-3.24C104.359,17.142,102.92,17.142,102.92,19.001L102.92,19.001z M-96.641,146.941 c0,1.859,1.5,1.859,2.461,1.859h20.34c1.98,0,2.4-0.54,2.4-2.46v-1.56c0-1.141,0-2.461-2.041-2.461c-2.1,0-2.1,1.141-2.1,2.82 H-89.86c3.539-3.062,9.299-7.562,11.879-9.961c3.78-3.359,6.541-7.199,6.541-12c0-7.199-6.061-11.699-13.381-11.699 c-7.08,0-11.82,4.92-11.82,10.02c0,2.221,1.681,2.881,2.701,2.881c1.26,0,2.64-1.02,2.64-2.699c0-0.721-0.3-1.5-0.841-1.921 c0.9-2.761,3.721-4.62,7.021-4.62c4.92,0,9.54,2.76,9.54,8.041c0,4.199-2.939,7.68-6.9,10.979l-13.26,11.16 C-96.279,145.802-96.641,146.102-96.641,146.941L-96.641,146.941z M-31.26,130.441c0,4.021,0,19.021,12.72,19.021 c12.72,0,12.72-15,12.72-18.961c0-4.021,0-19.021-12.72-19.021C-31.26,111.48-31.26,126.48-31.26,130.441L-31.26,130.441z M-27.12,129.9c0-3.299,0-14.76,8.58-14.76s8.58,11.461,8.58,14.76c0,3.181,0,15.9-8.58,15.9S-27.12,133.081-27.12,129.9 L-27.12,129.9z M37.54,117.001c0,1.801,1.62,1.801,2.101,1.801c1.68,0,4.319-0.479,6.119-1.438v27.779H40.3 c-0.96,0-2.399,0-2.399,1.858c0,1.801,1.5,1.801,2.399,1.801h15.06c0.899,0,2.399,0,2.399-1.801c0-1.858-1.438-1.858-2.399-1.858 H49.9v-31.201c0-0.959,0-2.459-1.801-2.459c-0.779,0-1.08,0.301-1.681,1.02c-2.28,2.461-5.88,2.58-7.14,2.641 C38.439,115.202,37.54,115.682,37.54,117.001L37.54,117.001z"/></g><text transform="matrix(1 0 0 1 241.6035 283.4619)" display="none" font-family="'CMUTypewriterVariable'" font-size="61.998">8</text><g><path fill="#FFF" d="M244.328,272.685c0-2.24,0.827-4.228,2.482-5.964c1.654-1.735,3.703-2.956,6.146-3.662 c-2.442-0.787-4.345-1.912-5.707-3.376c-1.362-1.463-2.043-3.082-2.043-4.858c0-2.604,1.206-4.909,3.617-6.918 c2.412-2.008,5.419-3.012,9.021-3.012s6.609,0.994,9.021,2.981c2.411,1.988,3.617,4.305,3.617,6.948 c0,1.776-0.671,3.386-2.013,4.828c-1.343,1.443-3.255,2.578-5.737,3.406c2.442,0.706,4.49,1.927,6.146,3.662 c1.655,1.736,2.482,3.724,2.482,5.964c0,3.068-1.292,5.747-3.875,8.038c-2.583,2.29-5.792,3.436-9.626,3.436 c-3.795,0-6.999-1.146-9.612-3.436C245.635,278.432,244.328,275.753,244.328,272.685z M248.597,272.624 c0,2.14,0.902,3.966,2.709,5.479s3.991,2.271,6.555,2.271c2.562,0,4.742-0.757,6.538-2.271c1.797-1.514,2.694-3.34,2.694-5.479 c0-2.018-0.857-3.804-2.573-5.358c-1.715-1.554-3.936-2.33-6.659-2.33c-2.685,0-4.899,0.786-6.646,2.36 S248.597,270.646,248.597,272.624z M249.475,254.885c0,1.735,0.827,3.214,2.482,4.435c1.654,1.222,3.617,1.832,5.888,1.832 s4.233-0.61,5.888-1.832c1.655-1.221,2.482-2.699,2.482-4.435c0-1.655-0.807-3.104-2.422-4.345 c-1.614-1.241-3.592-1.861-5.933-1.861c-2.402,0-4.4,0.62-5.994,1.861C250.271,251.781,249.475,253.229,249.475,254.885z"/></g></svg>